<svg xmlns="http://www.w3.org/2000/svg" width="200" height="200" viewBox="0 0 200 200">
  <!-- Plant pot -->
  <path d="M80 120 L120 120 L130 180 L70 180 Z" fill="#8D6E63" />
  <!-- Plant stem -->
  <path d="M100 120 L100 70" stroke="#4CAF50" stroke-width="4" />
  <!-- Plant leaves -->
  <path d="M100 100 C80 80, 60 90, 70 110" stroke="#4CAF50" stroke-width="4" fill="none" />
  <path d="M100 100 C120 80, 140 90, 130 110" stroke="#4CAF50" stroke-width="4" fill="none" />
  <path d="M100 90 C80 70, 60 60, 70 80" stroke="#4CAF50" stroke-width="4" fill="none" />
  <path d="M100 90 C120 70, 140 60, 130 80" stroke="#4CAF50" stroke-width="4" fill="none" />
  <path d="M100 80 C90 60, 80 50, 90 70" stroke="#4CAF50" stroke-width="4" fill="none" />
  <path d="M100 80 C110 60, 120 50, 110 70" stroke="#4CAF50" stroke-width="4" fill="none" />
  <!-- Glow effect -->
  <circle cx="100" cy="100" r="60" fill="#FFEB3B" fill-opacity="0.2" />
  <!-- Checkmark -->
  <path d="M80 50 L90 60 L110 40" stroke="#4CAF50" stroke-width="4" fill="none" />
</svg>